<?xml version="1.0" standalone="no"?>
<!DOCTYPE svg PUBLIC "-//W3C//DTD SVG 20010904//EN"
 "http://www.w3.org/TR/2001/REC-SVG-20010904/DTD/svg10.dtd">
<svg version="1.0" xmlns="http://www.w3.org/2000/svg"
 width="700.000000pt" height="700.000000pt" viewBox="0 0 700.000000 700.000000"
 preserveAspectRatio="xMidYMid meet">
<metadata>
Created by potrace 1.14, written by Peter Selinger 2001-2017
</metadata>
<g transform="translate(0.000000,700.000000) scale(0.100000,-0.100000)"
fill="#000000" stroke="none">
<path d="M5946 6326 c-21 -13 -42 -28 -45 -33 -3 -4 -25 -21 -48 -37 -24 -16
-43 -32 -43 -37 0 -4 -8 -10 -17 -13 -10 -4 -32 -19 -50 -34 -17 -15 -44 -36
-59 -47 -16 -11 -36 -28 -46 -37 -10 -10 -22 -18 -27 -18 -5 0 -11 -4 -13 -8
-1 -5 -30 -28 -63 -53 -85 -63 -96 -71 -122 -96 -13 -13 -27 -23 -31 -23 -6
-1 -48 -33 -86 -65 -6 -5 -29 -23 -51 -39 -42 -31 -56 -42 -92 -76 -13 -11
-25 -20 -28 -19 -6 0 -69 -49 -113 -88 -14 -13 -28 -23 -31 -23 -3 0 -5 54 -3
120 2 139 -9 179 -60 210 -37 22 -98 26 -131 9 -12 -7 -219 -209 -459 -450
l-438 -438 0 170 c0 190 -7 216 -63 245 -40 21 -115 23 -128 3 -5 -8 -9 -10
-9 -5 0 5 -233 -225 -518 -510 l-519 -520 3 136 c2 74 1 154 -2 177 -12 82
-90 136 -169 114 -27 -7 -188 -163 -742 -718 -389 -389 -721 -726 -738 -747
-16 -21 -36 -45 -42 -52 -7 -7 -13 -17 -13 -22 0 -6 -4 -12 -9 -14 -7 -3 -50
-66 -77 -113 -58 -104 -139 -285 -128 -285 3 0 0 -9 -6 -21 -6 -11 -13 -29
-16 -40 -2 -10 -6 -27 -8 -37 -40 -162 -49 -234 -50 -377 0 -90 9 -228 19
-275 3 -14 7 -36 10 -50 11 -58 14 -70 19 -78 3 -5 8 -22 11 -38 7 -33 9 -42
19 -69 91 -245 201 -422 370 -590 90 -90 205 -185 224 -185 6 0 12 -3 14 -7 5
-12 59 -48 95 -64 18 -7 33 -18 33 -22 0 -5 4 -5 10 -2 5 3 10 1 10 -5 0 -6 4
-9 9 -6 5 4 11 3 13 -1 4 -10 141 -65 228 -93 66 -21 88 -26 149 -36 18 -3 43
-8 55 -10 144 -32 432 -21 601 23 33 8 67 17 75 18 8 2 15 4 15 5 0 1 8 3 18
5 10 2 26 7 35 11 9 4 22 8 27 9 6 2 31 12 55 23 25 11 47 20 50 19 7 -2 71
35 94 53 10 8 19 13 21 10 3 -6 109 61 113 72 2 5 8 6 13 2 5 -3 12 2 15 10 3
9 11 16 16 16 6 0 19 10 29 22 11 11 19 17 19 12 0 -11 -60 -70 767 754 392
390 717 722 723 738 13 32 5 89 -15 121 -34 52 -58 58 -230 60 -88 0 -163 2
-167 2 -4 1 224 232 506 514 367 366 517 522 526 547 17 48 -1 110 -40 143
-36 31 -84 37 -252 34 -71 -2 -128 -2 -128 -1 0 2 195 198 434 436 238 238
438 442 444 454 17 32 8 107 -16 141 -31 44 -65 52 -206 50 l-123 -2 43 51
c24 28 44 56 44 63 0 6 4 11 10 11 5 0 22 19 38 43 17 23 38 52 48 64 11 12
28 33 38 48 11 14 28 36 38 48 29 36 32 40 58 77 13 19 30 39 37 43 7 5 11 12
8 18 -4 5 -2 9 2 9 5 0 34 33 64 72 57 77 71 94 107 136 12 15 25 35 28 45 3
9 9 17 15 17 5 0 21 19 36 43 15 23 33 46 40 50 7 4 13 13 13 19 0 6 8 18 18
27 32 29 81 105 87 136 8 38 -17 100 -50 121 -42 27 -95 28 -139 0z"/>
</g>
</svg>
